<?xml version="1.0" encoding="UTF-8"?>
<svg xmlns="http://www.w3.org/2000/svg" xmlns:xlink="http://www.w3.org/1999/xlink" width="600pt" height="600pt" viewBox="0 0 600 600" version="1.1">
<g id="surface51">
<rect x="0" y="0" width="600" height="600" style="fill:rgb(100%,100%,100%);fill-opacity:1;stroke:none;"/>
<path style="fill:none;stroke-width:0.1;stroke-linecap:butt;stroke-linejoin:miter;stroke:rgb(99.630911%,99.630911%,99.630911%);stroke-opacity:1;stroke-miterlimit:10;" d="M 557.753906 154.285156 L 299.609375 257.703125 "/>
<path style="fill:none;stroke-width:9.3;stroke-linecap:butt;stroke-linejoin:miter;stroke:rgb(34.288351%,34.288351%,34.288351%);stroke-opacity:1;stroke-miterlimit:10;" d="M 557.753906 154.285156 L 483.40625 226.003906 "/>
<path style="fill:none;stroke-width:11.2;stroke-linecap:butt;stroke-linejoin:miter;stroke:rgb(14.111496%,14.111496%,14.111496%);stroke-opacity:1;stroke-miterlimit:10;" d="M 557.753906 154.285156 L 478.414062 74.390625 "/>
<path style="fill:none;stroke-width:0.1;stroke-linecap:butt;stroke-linejoin:miter;stroke:rgb(99.630911%,99.630911%,99.630911%);stroke-opacity:1;stroke-miterlimit:10;" d="M 557.753906 154.285156 L 293.164062 40 "/>
<path style="fill:none;stroke-width:0.1;stroke-linecap:butt;stroke-linejoin:miter;stroke:rgb(99.630911%,99.630911%,99.630911%);stroke-opacity:1;stroke-miterlimit:10;" d="M 557.753906 154.285156 L 166.585938 551.167969 "/>
<path style="fill:none;stroke-width:2.2;stroke-linecap:butt;stroke-linejoin:miter;stroke:rgb(90.686659%,90.686659%,90.686659%);stroke-opacity:1;stroke-miterlimit:10;" d="M 557.753906 154.285156 L 363.691406 560 "/>
<path style="fill:none;stroke-width:2;stroke-linecap:butt;stroke-linejoin:miter;stroke:rgb(91.818531%,91.818531%,91.818531%);stroke-opacity:1;stroke-miterlimit:10;" d="M 557.753906 154.285156 L 520.960938 501.125 "/>
<path style="fill:none;stroke-width:0.1;stroke-linecap:butt;stroke-linejoin:miter;stroke:rgb(99.630911%,99.630911%,99.630911%);stroke-opacity:1;stroke-miterlimit:10;" d="M 557.753906 154.285156 L 560 425.507812 "/>
<path style="fill:none;stroke-width:10.6;stroke-linecap:butt;stroke-linejoin:miter;stroke:rgb(20.668973%,20.668973%,20.668973%);stroke-opacity:1;stroke-miterlimit:10;" d="M 299.609375 257.703125 L 483.40625 226.003906 "/>
<path style="fill:none;stroke-width:11.7;stroke-linecap:butt;stroke-linejoin:miter;stroke:rgb(9.5594%,9.5594%,9.5594%);stroke-opacity:1;stroke-miterlimit:10;" d="M 299.609375 257.703125 L 116.492188 227.3125 "/>
<path style="fill:none;stroke-width:0.1;stroke-linecap:butt;stroke-linejoin:miter;stroke:rgb(99.630911%,99.630911%,99.630911%);stroke-opacity:1;stroke-miterlimit:10;" d="M 299.609375 257.703125 L 40 163.613281 "/>
<path style="fill:none;stroke-width:0.1;stroke-linecap:butt;stroke-linejoin:miter;stroke:rgb(99.630911%,99.630911%,99.630911%);stroke-opacity:1;stroke-miterlimit:10;" d="M 299.609375 257.703125 L 74.550781 401.257812 "/>
<path style="fill:none;stroke-width:0.7;stroke-linecap:butt;stroke-linejoin:miter;stroke:rgb(97.416378%,97.416378%,97.416378%);stroke-opacity:1;stroke-miterlimit:10;" d="M 299.609375 257.703125 L 166.585938 551.167969 "/>
<path style="fill:none;stroke-width:1.6;stroke-linecap:butt;stroke-linejoin:miter;stroke:rgb(94.082276%,94.082276%,94.082276%);stroke-opacity:1;stroke-miterlimit:10;" d="M 299.609375 257.703125 L 44.484375 487.996094 "/>
<path style="fill:none;stroke-width:1.3;stroke-linecap:butt;stroke-linejoin:miter;stroke:rgb(95.201845%,95.201845%,95.201845%);stroke-opacity:1;stroke-miterlimit:10;" d="M 483.40625 226.003906 L 166.585938 551.167969 "/>
<path style="fill:none;stroke-width:1.8;stroke-linecap:butt;stroke-linejoin:miter;stroke:rgb(92.950404%,92.950404%,92.950404%);stroke-opacity:1;stroke-miterlimit:10;" d="M 483.40625 226.003906 L 363.691406 560 "/>
<path style="fill:none;stroke-width:0.1;stroke-linecap:butt;stroke-linejoin:miter;stroke:rgb(99.630911%,99.630911%,99.630911%);stroke-opacity:1;stroke-miterlimit:10;" d="M 483.40625 226.003906 L 520.960938 501.125 "/>
<path style="fill:none;stroke-width:11.2;stroke-linecap:butt;stroke-linejoin:miter;stroke:rgb(14.111496%,14.111496%,14.111496%);stroke-opacity:1;stroke-miterlimit:10;" d="M 116.492188 227.3125 L 40 163.613281 "/>
<path style="fill:none;stroke-width:1.8;stroke-linecap:butt;stroke-linejoin:miter;stroke:rgb(92.950404%,92.950404%,92.950404%);stroke-opacity:1;stroke-miterlimit:10;" d="M 116.492188 227.3125 L 74.550781 401.257812 "/>
<path style="fill:none;stroke-width:2.1;stroke-linecap:butt;stroke-linejoin:miter;stroke:rgb(91.252595%,91.252595%,91.252595%);stroke-opacity:1;stroke-miterlimit:10;" d="M 116.492188 227.3125 L 44.484375 487.996094 "/>
<path style="fill:none;stroke-width:0.4;stroke-linecap:butt;stroke-linejoin:miter;stroke:rgb(98.523645%,98.523645%,98.523645%);stroke-opacity:1;stroke-miterlimit:10;" d="M 116.492188 227.3125 L 235.796875 352.683594 "/>
<path style="fill:none;stroke-width:0.1;stroke-linecap:butt;stroke-linejoin:miter;stroke:rgb(99.630911%,99.630911%,99.630911%);stroke-opacity:1;stroke-miterlimit:10;" d="M 478.414062 74.390625 L 40 163.613281 "/>
<path style="fill:none;stroke-width:12.8;stroke-linecap:butt;stroke-linejoin:miter;stroke:rgb(0%,0%,0%);stroke-opacity:1;stroke-miterlimit:10;" d="M 478.414062 74.390625 L 293.164062 40 "/>
<path style="fill:none;stroke-width:0.4;stroke-linecap:butt;stroke-linejoin:miter;stroke:rgb(98.523645%,98.523645%,98.523645%);stroke-opacity:1;stroke-miterlimit:10;" d="M 478.414062 74.390625 L 363.691406 560 "/>
<path style="fill:none;stroke-width:1.7;stroke-linecap:butt;stroke-linejoin:miter;stroke:rgb(93.51634%,93.51634%,93.51634%);stroke-opacity:1;stroke-miterlimit:10;" d="M 478.414062 74.390625 L 560 425.507812 "/>
<path style="fill:none;stroke-width:0.6;stroke-linecap:butt;stroke-linejoin:miter;stroke:rgb(97.785467%,97.785467%,97.785467%);stroke-opacity:1;stroke-miterlimit:10;" d="M 40 163.613281 L 436.457031 364.449219 "/>
<path style="fill:none;stroke-width:9.5;stroke-linecap:butt;stroke-linejoin:miter;stroke:rgb(32.66436%,32.66436%,32.66436%);stroke-opacity:1;stroke-miterlimit:10;" d="M 40 163.613281 L 99.554688 84.632812 "/>
<path style="fill:none;stroke-width:0.3;stroke-linecap:butt;stroke-linejoin:miter;stroke:rgb(98.892734%,98.892734%,98.892734%);stroke-opacity:1;stroke-miterlimit:10;" d="M 40 163.613281 L 293.164062 40 "/>
<path style="fill:none;stroke-width:1.7;stroke-linecap:butt;stroke-linejoin:miter;stroke:rgb(93.51634%,93.51634%,93.51634%);stroke-opacity:1;stroke-miterlimit:10;" d="M 40 163.613281 L 74.550781 401.257812 "/>
<path style="fill:none;stroke-width:0.5;stroke-linecap:butt;stroke-linejoin:miter;stroke:rgb(98.154556%,98.154556%,98.154556%);stroke-opacity:1;stroke-miterlimit:10;" d="M 40 163.613281 L 235.796875 352.683594 "/>
<path style="fill:none;stroke-width:1.4;stroke-linecap:butt;stroke-linejoin:miter;stroke:rgb(94.832757%,94.832757%,94.832757%);stroke-opacity:1;stroke-miterlimit:10;" d="M 99.554688 84.632812 L 436.457031 364.449219 "/>
<path style="fill:none;stroke-width:8.2;stroke-linecap:butt;stroke-linejoin:miter;stroke:rgb(43.2203%,43.2203%,43.2203%);stroke-opacity:1;stroke-miterlimit:10;" d="M 99.554688 84.632812 L 293.164062 40 "/>
<path style="fill:none;stroke-width:0.1;stroke-linecap:butt;stroke-linejoin:miter;stroke:rgb(99.630911%,99.630911%,99.630911%);stroke-opacity:1;stroke-miterlimit:10;" d="M 99.554688 84.632812 L 74.550781 401.257812 "/>
<path style="fill:none;stroke-width:1.6;stroke-linecap:butt;stroke-linejoin:miter;stroke:rgb(94.082276%,94.082276%,94.082276%);stroke-opacity:1;stroke-miterlimit:10;" d="M 99.554688 84.632812 L 235.796875 352.683594 "/>
<path style="fill:none;stroke-width:1.8;stroke-linecap:butt;stroke-linejoin:miter;stroke:rgb(92.950404%,92.950404%,92.950404%);stroke-opacity:1;stroke-miterlimit:10;" d="M 293.164062 40 L 436.457031 364.449219 "/>
<path style="fill:none;stroke-width:0.6;stroke-linecap:butt;stroke-linejoin:miter;stroke:rgb(97.785467%,97.785467%,97.785467%);stroke-opacity:1;stroke-miterlimit:10;" d="M 293.164062 40 L 520.960938 501.125 "/>
<path style="fill:none;stroke-width:1.2;stroke-linecap:butt;stroke-linejoin:miter;stroke:rgb(95.570934%,95.570934%,95.570934%);stroke-opacity:1;stroke-miterlimit:10;" d="M 293.164062 40 L 560 425.507812 "/>
<path style="fill:none;stroke-width:0.1;stroke-linecap:butt;stroke-linejoin:miter;stroke:rgb(99.630911%,99.630911%,99.630911%);stroke-opacity:1;stroke-miterlimit:10;" d="M 74.550781 401.257812 L 436.457031 364.449219 "/>
<path style="fill:none;stroke-width:7.4;stroke-linecap:butt;stroke-linejoin:miter;stroke:rgb(49.996155%,49.996155%,49.996155%);stroke-opacity:1;stroke-miterlimit:10;" d="M 74.550781 401.257812 L 44.484375 487.996094 "/>
<path style="fill:none;stroke-width:11.5;stroke-linecap:butt;stroke-linejoin:miter;stroke:rgb(11.380238%,11.380238%,11.380238%);stroke-opacity:1;stroke-miterlimit:10;" d="M 74.550781 401.257812 L 235.796875 352.683594 "/>
<path style="fill:none;stroke-width:0.5;stroke-linecap:butt;stroke-linejoin:miter;stroke:rgb(98.154556%,98.154556%,98.154556%);stroke-opacity:1;stroke-miterlimit:10;" d="M 74.550781 401.257812 L 296.359375 509.605469 "/>
<path style="fill:none;stroke-width:9.7;stroke-linecap:butt;stroke-linejoin:miter;stroke:rgb(30.634371%,30.634371%,30.634371%);stroke-opacity:1;stroke-miterlimit:10;" d="M 166.585938 551.167969 L 44.484375 487.996094 "/>
<path style="fill:none;stroke-width:11.7;stroke-linecap:butt;stroke-linejoin:miter;stroke:rgb(9.5594%,9.5594%,9.5594%);stroke-opacity:1;stroke-miterlimit:10;" d="M 166.585938 551.167969 L 363.691406 560 "/>
<path style="fill:none;stroke-width:0.9;stroke-linecap:butt;stroke-linejoin:miter;stroke:rgb(96.678201%,96.678201%,96.678201%);stroke-opacity:1;stroke-miterlimit:10;" d="M 166.585938 551.167969 L 296.359375 509.605469 "/>
<path style="fill:none;stroke-width:0.6;stroke-linecap:butt;stroke-linejoin:miter;stroke:rgb(97.785467%,97.785467%,97.785467%);stroke-opacity:1;stroke-miterlimit:10;" d="M 44.484375 487.996094 L 296.359375 509.605469 "/>
<path style="fill:none;stroke-width:11.2;stroke-linecap:butt;stroke-linejoin:miter;stroke:rgb(14.111496%,14.111496%,14.111496%);stroke-opacity:1;stroke-miterlimit:10;" d="M 363.691406 560 L 520.960938 501.125 "/>
<path style="fill:none;stroke-width:1.4;stroke-linecap:butt;stroke-linejoin:miter;stroke:rgb(94.832757%,94.832757%,94.832757%);stroke-opacity:1;stroke-miterlimit:10;" d="M 363.691406 560 L 296.359375 509.605469 "/>
<path style="fill:none;stroke-width:11;stroke-linecap:butt;stroke-linejoin:miter;stroke:rgb(16.239908%,16.239908%,16.239908%);stroke-opacity:1;stroke-miterlimit:10;" d="M 235.796875 352.683594 L 436.457031 364.449219 "/>
<path style="fill:none;stroke-width:0.8;stroke-linecap:butt;stroke-linejoin:miter;stroke:rgb(97.04729%,97.04729%,97.04729%);stroke-opacity:1;stroke-miterlimit:10;" d="M 235.796875 352.683594 L 296.359375 509.605469 "/>
<path style="fill:none;stroke-width:0.1;stroke-linecap:butt;stroke-linejoin:miter;stroke:rgb(99.630911%,99.630911%,99.630911%);stroke-opacity:1;stroke-miterlimit:10;" d="M 520.960938 501.125 L 436.457031 364.449219 "/>
<path style="fill:none;stroke-width:0.4;stroke-linecap:butt;stroke-linejoin:miter;stroke:rgb(98.523645%,98.523645%,98.523645%);stroke-opacity:1;stroke-miterlimit:10;" d="M 520.960938 501.125 L 296.359375 509.605469 "/>
<path style="fill:none;stroke-width:10.2;stroke-linecap:butt;stroke-linejoin:miter;stroke:rgb(25.098039%,25.098039%,25.098039%);stroke-opacity:1;stroke-miterlimit:10;" d="M 520.960938 501.125 L 560 425.507812 "/>
<path style="fill:none;stroke-width:0.5;stroke-linecap:butt;stroke-linejoin:miter;stroke:rgb(98.154556%,98.154556%,98.154556%);stroke-opacity:1;stroke-miterlimit:10;" d="M 296.359375 509.605469 L 436.457031 364.449219 "/>
<path style="fill:none;stroke-width:0.2;stroke-linecap:butt;stroke-linejoin:miter;stroke:rgb(99.261822%,99.261822%,99.261822%);stroke-opacity:1;stroke-miterlimit:10;" d="M 296.359375 509.605469 L 560 425.507812 "/>
<path style="fill:none;stroke-width:7.5;stroke-linecap:butt;stroke-linejoin:miter;stroke:rgb(49.134948%,49.134948%,49.134948%);stroke-opacity:1;stroke-miterlimit:10;" d="M 560 425.507812 L 436.457031 364.449219 "/>
<path style="fill-rule:nonzero;fill:rgb(94.901961%,94.901961%,94.901961%);fill-opacity:1;stroke-width:6;stroke-linecap:butt;stroke-linejoin:miter;stroke:rgb(0%,39.215686%,0%);stroke-opacity:1;stroke-miterlimit:10;" d="M 564.753906 154.285156 C 564.753906 158.148438 561.621094 161.285156 557.753906 161.285156 C 553.890625 161.285156 550.753906 158.148438 550.753906 154.285156 C 550.753906 150.417969 553.890625 147.285156 557.753906 147.285156 C 561.621094 147.285156 564.753906 150.417969 564.753906 154.285156 "/>
<path style="fill-rule:nonzero;fill:rgb(94.901961%,94.901961%,94.901961%);fill-opacity:1;stroke-width:6;stroke-linecap:butt;stroke-linejoin:miter;stroke:rgb(0%,39.215686%,0%);stroke-opacity:1;stroke-miterlimit:10;" d="M 306.609375 257.703125 C 306.609375 261.570312 303.476562 264.703125 299.609375 264.703125 C 295.746094 264.703125 292.609375 261.570312 292.609375 257.703125 C 292.609375 253.839844 295.746094 250.703125 299.609375 250.703125 C 303.476562 250.703125 306.609375 253.839844 306.609375 257.703125 "/>
<path style="fill-rule:nonzero;fill:rgb(94.901961%,94.901961%,94.901961%);fill-opacity:1;stroke-width:6;stroke-linecap:butt;stroke-linejoin:miter;stroke:rgb(0%,39.215686%,0%);stroke-opacity:1;stroke-miterlimit:10;" d="M 490.40625 226.003906 C 490.40625 229.871094 487.269531 233.003906 483.40625 233.003906 C 479.539062 233.003906 476.40625 229.871094 476.40625 226.003906 C 476.40625 222.140625 479.539062 219.003906 483.40625 219.003906 C 487.269531 219.003906 490.40625 222.140625 490.40625 226.003906 "/>
<path style="fill-rule:nonzero;fill:rgb(94.901961%,94.901961%,94.901961%);fill-opacity:1;stroke-width:6;stroke-linecap:butt;stroke-linejoin:miter;stroke:rgb(0%,39.215686%,0%);stroke-opacity:1;stroke-miterlimit:10;" d="M 123.492188 227.3125 C 123.492188 231.179688 120.355469 234.3125 116.492188 234.3125 C 112.625 234.3125 109.492188 231.179688 109.492188 227.3125 C 109.492188 223.445312 112.625 220.3125 116.492188 220.3125 C 120.355469 220.3125 123.492188 223.445312 123.492188 227.3125 "/>
<path style="fill-rule:nonzero;fill:rgb(94.901961%,94.901961%,94.901961%);fill-opacity:1;stroke-width:6;stroke-linecap:butt;stroke-linejoin:miter;stroke:rgb(0%,39.215686%,0%);stroke-opacity:1;stroke-miterlimit:10;" d="M 485.414062 74.390625 C 485.414062 78.253906 482.277344 81.390625 478.414062 81.390625 C 474.546875 81.390625 471.414062 78.253906 471.414062 74.390625 C 471.414062 70.523438 474.546875 67.390625 478.414062 67.390625 C 482.277344 67.390625 485.414062 70.523438 485.414062 74.390625 "/>
<path style="fill-rule:nonzero;fill:rgb(94.901961%,94.901961%,94.901961%);fill-opacity:1;stroke-width:6;stroke-linecap:butt;stroke-linejoin:miter;stroke:rgb(0%,39.215686%,0%);stroke-opacity:1;stroke-miterlimit:10;" d="M 47 163.613281 C 47 167.476562 43.867188 170.613281 40 170.613281 C 36.132812 170.613281 33 167.476562 33 163.613281 C 33 159.746094 36.132812 156.613281 40 156.613281 C 43.867188 156.613281 47 159.746094 47 163.613281 "/>
<path style="fill-rule:nonzero;fill:rgb(94.901961%,94.901961%,94.901961%);fill-opacity:1;stroke-width:6;stroke-linecap:butt;stroke-linejoin:miter;stroke:rgb(0%,39.215686%,0%);stroke-opacity:1;stroke-miterlimit:10;" d="M 106.554688 84.632812 C 106.554688 88.496094 103.417969 91.632812 99.554688 91.632812 C 95.6875 91.632812 92.554688 88.496094 92.554688 84.632812 C 92.554688 80.765625 95.6875 77.632812 99.554688 77.632812 C 103.417969 77.632812 106.554688 80.765625 106.554688 84.632812 "/>
<path style="fill-rule:nonzero;fill:rgb(94.901961%,94.901961%,94.901961%);fill-opacity:1;stroke-width:6;stroke-linecap:butt;stroke-linejoin:miter;stroke:rgb(0%,39.215686%,0%);stroke-opacity:1;stroke-miterlimit:10;" d="M 300.164062 40 C 300.164062 43.867188 297.03125 47 293.164062 47 C 289.296875 47 286.164062 43.867188 286.164062 40 C 286.164062 36.132812 289.296875 33 293.164062 33 C 297.03125 33 300.164062 36.132812 300.164062 40 "/>
<path style="fill-rule:nonzero;fill:rgb(94.901961%,94.901961%,94.901961%);fill-opacity:1;stroke-width:6;stroke-linecap:butt;stroke-linejoin:miter;stroke:rgb(0%,39.215686%,0%);stroke-opacity:1;stroke-miterlimit:10;" d="M 81.550781 401.257812 C 81.550781 405.121094 78.414062 408.257812 74.550781 408.257812 C 70.683594 408.257812 67.550781 405.121094 67.550781 401.257812 C 67.550781 397.390625 70.683594 394.257812 74.550781 394.257812 C 78.414062 394.257812 81.550781 397.390625 81.550781 401.257812 "/>
<path style="fill-rule:nonzero;fill:rgb(94.901961%,94.901961%,94.901961%);fill-opacity:1;stroke-width:6;stroke-linecap:butt;stroke-linejoin:miter;stroke:rgb(0%,39.215686%,0%);stroke-opacity:1;stroke-miterlimit:10;" d="M 173.585938 551.167969 C 173.585938 555.035156 170.449219 558.167969 166.585938 558.167969 C 162.71875 558.167969 159.585938 555.035156 159.585938 551.167969 C 159.585938 547.300781 162.71875 544.167969 166.585938 544.167969 C 170.449219 544.167969 173.585938 547.300781 173.585938 551.167969 "/>
<path style="fill-rule:nonzero;fill:rgb(94.901961%,94.901961%,94.901961%);fill-opacity:1;stroke-width:6;stroke-linecap:butt;stroke-linejoin:miter;stroke:rgb(0%,39.215686%,0%);stroke-opacity:1;stroke-miterlimit:10;" d="M 51.484375 487.996094 C 51.484375 491.863281 48.347656 494.996094 44.484375 494.996094 C 40.617188 494.996094 37.484375 491.863281 37.484375 487.996094 C 37.484375 484.128906 40.617188 480.996094 44.484375 480.996094 C 48.347656 480.996094 51.484375 484.128906 51.484375 487.996094 "/>
<path style="fill-rule:nonzero;fill:rgb(94.901961%,94.901961%,94.901961%);fill-opacity:1;stroke-width:6;stroke-linecap:butt;stroke-linejoin:miter;stroke:rgb(0%,39.215686%,0%);stroke-opacity:1;stroke-miterlimit:10;" d="M 370.691406 560 C 370.691406 563.867188 367.554688 567 363.691406 567 C 359.824219 567 356.691406 563.867188 356.691406 560 C 356.691406 556.132812 359.824219 553 363.691406 553 C 367.554688 553 370.691406 556.132812 370.691406 560 "/>
<path style="fill-rule:nonzero;fill:rgb(94.901961%,94.901961%,94.901961%);fill-opacity:1;stroke-width:6;stroke-linecap:butt;stroke-linejoin:miter;stroke:rgb(0%,39.215686%,0%);stroke-opacity:1;stroke-miterlimit:10;" d="M 242.796875 352.683594 C 242.796875 356.550781 239.660156 359.683594 235.796875 359.683594 C 231.929688 359.683594 228.796875 356.550781 228.796875 352.683594 C 228.796875 348.820312 231.929688 345.683594 235.796875 345.683594 C 239.660156 345.683594 242.796875 348.820312 242.796875 352.683594 "/>
<path style="fill-rule:nonzero;fill:rgb(94.901961%,94.901961%,94.901961%);fill-opacity:1;stroke-width:6;stroke-linecap:butt;stroke-linejoin:miter;stroke:rgb(0%,39.215686%,0%);stroke-opacity:1;stroke-miterlimit:10;" d="M 527.960938 501.125 C 527.960938 504.988281 524.828125 508.125 520.960938 508.125 C 517.09375 508.125 513.960938 504.988281 513.960938 501.125 C 513.960938 497.257812 517.09375 494.125 520.960938 494.125 C 524.828125 494.125 527.960938 497.257812 527.960938 501.125 "/>
<path style="fill-rule:nonzero;fill:rgb(94.901961%,94.901961%,94.901961%);fill-opacity:1;stroke-width:6;stroke-linecap:butt;stroke-linejoin:miter;stroke:rgb(0%,39.215686%,0%);stroke-opacity:1;stroke-miterlimit:10;" d="M 303.359375 509.605469 C 303.359375 513.46875 300.226562 516.605469 296.359375 516.605469 C 292.492188 516.605469 289.359375 513.46875 289.359375 509.605469 C 289.359375 505.738281 292.492188 502.605469 296.359375 502.605469 C 300.226562 502.605469 303.359375 505.738281 303.359375 509.605469 "/>
<path style="fill-rule:nonzero;fill:rgb(94.901961%,94.901961%,94.901961%);fill-opacity:1;stroke-width:6;stroke-linecap:butt;stroke-linejoin:miter;stroke:rgb(0%,39.215686%,0%);stroke-opacity:1;stroke-miterlimit:10;" d="M 567 425.507812 C 567 429.375 563.867188 432.507812 560 432.507812 C 556.132812 432.507812 553 429.375 553 425.507812 C 553 421.644531 556.132812 418.507812 560 418.507812 C 563.867188 418.507812 567 421.644531 567 425.507812 "/>
<path style="fill-rule:nonzero;fill:rgb(94.901961%,94.901961%,94.901961%);fill-opacity:1;stroke-width:6;stroke-linecap:butt;stroke-linejoin:miter;stroke:rgb(0%,39.215686%,0%);stroke-opacity:1;stroke-miterlimit:10;" d="M 443.457031 364.449219 C 443.457031 368.3125 440.320312 371.449219 436.457031 371.449219 C 432.589844 371.449219 429.457031 368.3125 429.457031 364.449219 C 429.457031 360.582031 432.589844 357.449219 436.457031 357.449219 C 440.320312 357.449219 443.457031 360.582031 443.457031 364.449219 "/>
</g>
</svg>
