<?xml version="1.0" encoding="UTF-8"?>
<svg xmlns="http://www.w3.org/2000/svg" xmlns:xlink="http://www.w3.org/1999/xlink" width="600pt" height="600pt" viewBox="0 0 600 600" version="1.1">
<g id="surface51">
<rect x="0" y="0" width="600" height="600" style="fill:rgb(100%,100%,100%);fill-opacity:1;stroke:none;"/>
<path style="fill:none;stroke-width:4;stroke-linecap:butt;stroke-linejoin:miter;stroke:rgb(79.500192%,79.500192%,79.500192%);stroke-opacity:1;stroke-miterlimit:10;" d="M 560 144.9375 L 477.066406 60.035156 "/>
<path style="fill:none;stroke-width:3.7;stroke-linecap:butt;stroke-linejoin:miter;stroke:rgb(81.56709%,81.56709%,81.56709%);stroke-opacity:1;stroke-miterlimit:10;" d="M 560 144.9375 L 406.933594 214.863281 "/>
<path style="fill:none;stroke-width:1.6;stroke-linecap:butt;stroke-linejoin:miter;stroke:rgb(94.082276%,94.082276%,94.082276%);stroke-opacity:1;stroke-miterlimit:10;" d="M 560 144.9375 L 480.679688 500.082031 "/>
<path style="fill:none;stroke-width:0.2;stroke-linecap:butt;stroke-linejoin:miter;stroke:rgb(99.261822%,99.261822%,99.261822%);stroke-opacity:1;stroke-miterlimit:10;" d="M 560 144.9375 L 507.539062 419.90625 "/>
<path style="fill:none;stroke-width:0.2;stroke-linecap:butt;stroke-linejoin:miter;stroke:rgb(99.261822%,99.261822%,99.261822%);stroke-opacity:1;stroke-miterlimit:10;" d="M 40.851562 390.640625 L 247.746094 464.914062 "/>
<path style="fill:none;stroke-width:5.1;stroke-linecap:butt;stroke-linejoin:miter;stroke:rgb(71.058824%,71.058824%,71.058824%);stroke-opacity:1;stroke-miterlimit:10;" d="M 40.851562 390.640625 L 196.667969 364.460938 "/>
<path style="fill:none;stroke-width:4.4;stroke-linecap:butt;stroke-linejoin:miter;stroke:rgb(76.744329%,76.744329%,76.744329%);stroke-opacity:1;stroke-miterlimit:10;" d="M 40.851562 390.640625 L 79.402344 507.535156 "/>
<path style="fill:none;stroke-width:1.8;stroke-linecap:butt;stroke-linejoin:miter;stroke:rgb(92.950404%,92.950404%,92.950404%);stroke-opacity:1;stroke-miterlimit:10;" d="M 40.851562 390.640625 L 40 169.707031 "/>
<path style="fill:none;stroke-width:0.1;stroke-linecap:butt;stroke-linejoin:miter;stroke:rgb(99.630911%,99.630911%,99.630911%);stroke-opacity:1;stroke-miterlimit:10;" d="M 40.851562 390.640625 L 113.628906 81.78125 "/>
<path style="fill:none;stroke-width:2.2;stroke-linecap:butt;stroke-linejoin:miter;stroke:rgb(90.686659%,90.686659%,90.686659%);stroke-opacity:1;stroke-miterlimit:10;" d="M 248.542969 255.328125 L 182.351562 558.171875 "/>
<path style="fill:none;stroke-width:4.2;stroke-linecap:butt;stroke-linejoin:miter;stroke:rgb(78.122261%,78.122261%,78.122261%);stroke-opacity:1;stroke-miterlimit:10;" d="M 248.542969 255.328125 L 406.933594 214.863281 "/>
<path style="fill:none;stroke-width:1.4;stroke-linecap:butt;stroke-linejoin:miter;stroke:rgb(94.832757%,94.832757%,94.832757%);stroke-opacity:1;stroke-miterlimit:10;" d="M 248.542969 255.328125 L 79.402344 507.535156 "/>
<path style="fill:none;stroke-width:7.9;stroke-linecap:butt;stroke-linejoin:miter;stroke:rgb(45.690119%,45.690119%,45.690119%);stroke-opacity:1;stroke-miterlimit:10;" d="M 248.542969 255.328125 L 95.652344 230.964844 "/>
<path style="fill:none;stroke-width:1.2;stroke-linecap:butt;stroke-linejoin:miter;stroke:rgb(95.570934%,95.570934%,95.570934%);stroke-opacity:1;stroke-miterlimit:10;" d="M 182.351562 558.171875 L 406.933594 214.863281 "/>
<path style="fill:none;stroke-width:4.2;stroke-linecap:butt;stroke-linejoin:miter;stroke:rgb(78.122261%,78.122261%,78.122261%);stroke-opacity:1;stroke-miterlimit:10;" d="M 182.351562 558.171875 L 79.402344 507.535156 "/>
<path style="fill:none;stroke-width:6.1;stroke-linecap:butt;stroke-linejoin:miter;stroke:rgb(61.462514%,61.462514%,61.462514%);stroke-opacity:1;stroke-miterlimit:10;" d="M 182.351562 558.171875 L 350.378906 560 "/>
<path style="fill:none;stroke-width:4.8;stroke-linecap:butt;stroke-linejoin:miter;stroke:rgb(73.937716%,73.937716%,73.937716%);stroke-opacity:1;stroke-miterlimit:10;" d="M 477.066406 60.035156 L 267.679688 40 "/>
<path style="fill:none;stroke-width:0.2;stroke-linecap:butt;stroke-linejoin:miter;stroke:rgb(99.261822%,99.261822%,99.261822%);stroke-opacity:1;stroke-miterlimit:10;" d="M 477.066406 60.035156 L 414.359375 360.507812 "/>
<path style="fill:none;stroke-width:1.4;stroke-linecap:butt;stroke-linejoin:miter;stroke:rgb(94.832757%,94.832757%,94.832757%);stroke-opacity:1;stroke-miterlimit:10;" d="M 477.066406 60.035156 L 507.539062 419.90625 "/>
<path style="fill:none;stroke-width:0.3;stroke-linecap:butt;stroke-linejoin:miter;stroke:rgb(98.892734%,98.892734%,98.892734%);stroke-opacity:1;stroke-miterlimit:10;" d="M 196.667969 364.460938 L 267.679688 40 "/>
<path style="fill:none;stroke-width:4.6;stroke-linecap:butt;stroke-linejoin:miter;stroke:rgb(75.366398%,75.366398%,75.366398%);stroke-opacity:1;stroke-miterlimit:10;" d="M 196.667969 364.460938 L 414.359375 360.507812 "/>
<path style="fill:none;stroke-width:2;stroke-linecap:butt;stroke-linejoin:miter;stroke:rgb(91.818531%,91.818531%,91.818531%);stroke-opacity:1;stroke-miterlimit:10;" d="M 196.667969 364.460938 L 113.628906 81.78125 "/>
<path style="fill:none;stroke-width:2.5;stroke-linecap:butt;stroke-linejoin:miter;stroke:rgb(88.98885%,88.98885%,88.98885%);stroke-opacity:1;stroke-miterlimit:10;" d="M 406.933594 214.863281 L 350.378906 560 "/>
<path style="fill:none;stroke-width:2.2;stroke-linecap:butt;stroke-linejoin:miter;stroke:rgb(90.686659%,90.686659%,90.686659%);stroke-opacity:1;stroke-miterlimit:10;" d="M 79.402344 507.535156 L 95.652344 230.964844 "/>
<path style="fill:none;stroke-width:7.6;stroke-linecap:butt;stroke-linejoin:miter;stroke:rgb(48.273741%,48.273741%,48.273741%);stroke-opacity:1;stroke-miterlimit:10;" d="M 95.652344 230.964844 L 40 169.707031 "/>
<path style="fill:none;stroke-width:8.1;stroke-linecap:butt;stroke-linejoin:miter;stroke:rgb(44.032295%,44.032295%,44.032295%);stroke-opacity:1;stroke-miterlimit:10;" d="M 350.378906 560 L 480.679688 500.082031 "/>
<path style="fill:none;stroke-width:1.3;stroke-linecap:butt;stroke-linejoin:miter;stroke:rgb(95.201845%,95.201845%,95.201845%);stroke-opacity:1;stroke-miterlimit:10;" d="M 267.679688 40 L 414.359375 360.507812 "/>
<path style="fill:none;stroke-width:4.5;stroke-linecap:butt;stroke-linejoin:miter;stroke:rgb(76.055363%,76.055363%,76.055363%);stroke-opacity:1;stroke-miterlimit:10;" d="M 267.679688 40 L 113.628906 81.78125 "/>
<path style="fill:none;stroke-width:5.4;stroke-linecap:butt;stroke-linejoin:miter;stroke:rgb(68.179931%,68.179931%,68.179931%);stroke-opacity:1;stroke-miterlimit:10;" d="M 414.359375 360.507812 L 507.539062 419.90625 "/>
<path style="fill:none;stroke-width:6.8;stroke-linecap:butt;stroke-linejoin:miter;stroke:rgb(55.163399%,55.163399%,55.163399%);stroke-opacity:1;stroke-miterlimit:10;" d="M 40 169.707031 L 113.628906 81.78125 "/>
<path style="fill:none;stroke-width:6.6;stroke-linecap:butt;stroke-linejoin:miter;stroke:rgb(56.885813%,56.885813%,56.885813%);stroke-opacity:1;stroke-miterlimit:10;" d="M 480.679688 500.082031 L 507.539062 419.90625 "/>
<path style="fill:none;stroke-width:0.4;stroke-linecap:butt;stroke-linejoin:miter;stroke:rgb(98.523645%,98.523645%,98.523645%);stroke-opacity:1;stroke-miterlimit:10;" d="M 113.628906 81.78125 L 507.539062 419.90625 "/>
<path style="fill-rule:nonzero;fill:rgb(94.901961%,94.901961%,94.901961%);fill-opacity:1;stroke-width:6;stroke-linecap:butt;stroke-linejoin:miter;stroke:rgb(0%,39.215686%,0%);stroke-opacity:1;stroke-miterlimit:10;" d="M 567 144.9375 C 567 148.804688 563.867188 151.9375 560 151.9375 C 556.132812 151.9375 553 148.804688 553 144.9375 C 553 141.070312 556.132812 137.9375 560 137.9375 C 563.867188 137.9375 567 141.070312 567 144.9375 "/>
<path style="fill-rule:nonzero;fill:rgb(94.901961%,94.901961%,94.901961%);fill-opacity:1;stroke-width:6;stroke-linecap:butt;stroke-linejoin:miter;stroke:rgb(0%,39.215686%,0%);stroke-opacity:1;stroke-miterlimit:10;" d="M 47.851562 390.640625 C 47.851562 394.503906 44.714844 397.640625 40.851562 397.640625 C 36.984375 397.640625 33.851562 394.503906 33.851562 390.640625 C 33.851562 386.773438 36.984375 383.640625 40.851562 383.640625 C 44.714844 383.640625 47.851562 386.773438 47.851562 390.640625 "/>
<path style="fill-rule:nonzero;fill:rgb(94.901961%,94.901961%,94.901961%);fill-opacity:1;stroke-width:6;stroke-linecap:butt;stroke-linejoin:miter;stroke:rgb(0%,39.215686%,0%);stroke-opacity:1;stroke-miterlimit:10;" d="M 255.542969 255.328125 C 255.542969 259.195312 252.40625 262.328125 248.542969 262.328125 C 244.675781 262.328125 241.542969 259.195312 241.542969 255.328125 C 241.542969 251.460938 244.675781 248.328125 248.542969 248.328125 C 252.40625 248.328125 255.542969 251.460938 255.542969 255.328125 "/>
<path style="fill-rule:nonzero;fill:rgb(94.901961%,94.901961%,94.901961%);fill-opacity:1;stroke-width:6;stroke-linecap:butt;stroke-linejoin:miter;stroke:rgb(0%,39.215686%,0%);stroke-opacity:1;stroke-miterlimit:10;" d="M 189.351562 558.171875 C 189.351562 562.035156 186.21875 565.171875 182.351562 565.171875 C 178.488281 565.171875 175.351562 562.035156 175.351562 558.171875 C 175.351562 554.304688 178.488281 551.171875 182.351562 551.171875 C 186.21875 551.171875 189.351562 554.304688 189.351562 558.171875 "/>
<path style="fill-rule:nonzero;fill:rgb(94.901961%,94.901961%,94.901961%);fill-opacity:1;stroke-width:6;stroke-linecap:butt;stroke-linejoin:miter;stroke:rgb(0%,39.215686%,0%);stroke-opacity:1;stroke-miterlimit:10;" d="M 484.066406 60.035156 C 484.066406 63.902344 480.933594 67.035156 477.066406 67.035156 C 473.203125 67.035156 470.066406 63.902344 470.066406 60.035156 C 470.066406 56.167969 473.203125 53.035156 477.066406 53.035156 C 480.933594 53.035156 484.066406 56.167969 484.066406 60.035156 "/>
<path style="fill-rule:nonzero;fill:rgb(94.901961%,94.901961%,94.901961%);fill-opacity:1;stroke-width:6;stroke-linecap:butt;stroke-linejoin:miter;stroke:rgb(0%,39.215686%,0%);stroke-opacity:1;stroke-miterlimit:10;" d="M 203.667969 364.460938 C 203.667969 368.328125 200.53125 371.460938 196.667969 371.460938 C 192.800781 371.460938 189.667969 368.328125 189.667969 364.460938 C 189.667969 360.59375 192.800781 357.460938 196.667969 357.460938 C 200.53125 357.460938 203.667969 360.59375 203.667969 364.460938 "/>
<path style="fill-rule:nonzero;fill:rgb(94.901961%,94.901961%,94.901961%);fill-opacity:1;stroke-width:6;stroke-linecap:butt;stroke-linejoin:miter;stroke:rgb(0%,39.215686%,0%);stroke-opacity:1;stroke-miterlimit:10;" d="M 413.933594 214.863281 C 413.933594 218.730469 410.800781 221.863281 406.933594 221.863281 C 403.070312 221.863281 399.933594 218.730469 399.933594 214.863281 C 399.933594 211 403.070312 207.863281 406.933594 207.863281 C 410.800781 207.863281 413.933594 211 413.933594 214.863281 "/>
<path style="fill-rule:nonzero;fill:rgb(94.901961%,94.901961%,94.901961%);fill-opacity:1;stroke-width:6;stroke-linecap:butt;stroke-linejoin:miter;stroke:rgb(0%,39.215686%,0%);stroke-opacity:1;stroke-miterlimit:10;" d="M 86.402344 507.535156 C 86.402344 511.398438 83.265625 514.535156 79.402344 514.535156 C 75.535156 514.535156 72.402344 511.398438 72.402344 507.535156 C 72.402344 503.667969 75.535156 500.535156 79.402344 500.535156 C 83.265625 500.535156 86.402344 503.667969 86.402344 507.535156 "/>
<path style="fill-rule:nonzero;fill:rgb(94.901961%,94.901961%,94.901961%);fill-opacity:1;stroke-width:6;stroke-linecap:butt;stroke-linejoin:miter;stroke:rgb(0%,39.215686%,0%);stroke-opacity:1;stroke-miterlimit:10;" d="M 102.652344 230.964844 C 102.652344 234.832031 99.519531 237.964844 95.652344 237.964844 C 91.785156 237.964844 88.652344 234.832031 88.652344 230.964844 C 88.652344 227.097656 91.785156 223.964844 95.652344 223.964844 C 99.519531 223.964844 102.652344 227.097656 102.652344 230.964844 "/>
<path style="fill-rule:nonzero;fill:rgb(94.901961%,94.901961%,94.901961%);fill-opacity:1;stroke-width:6;stroke-linecap:butt;stroke-linejoin:miter;stroke:rgb(0%,39.215686%,0%);stroke-opacity:1;stroke-miterlimit:10;" d="M 357.378906 560 C 357.378906 563.867188 354.246094 567 350.378906 567 C 346.515625 567 343.378906 563.867188 343.378906 560 C 343.378906 556.132812 346.515625 553 350.378906 553 C 354.246094 553 357.378906 556.132812 357.378906 560 "/>
<path style="fill-rule:nonzero;fill:rgb(94.901961%,94.901961%,94.901961%);fill-opacity:1;stroke-width:6;stroke-linecap:butt;stroke-linejoin:miter;stroke:rgb(0%,39.215686%,0%);stroke-opacity:1;stroke-miterlimit:10;" d="M 274.679688 40 C 274.679688 43.867188 271.546875 47 267.679688 47 C 263.816406 47 260.679688 43.867188 260.679688 40 C 260.679688 36.132812 263.816406 33 267.679688 33 C 271.546875 33 274.679688 36.132812 274.679688 40 "/>
<path style="fill-rule:nonzero;fill:rgb(94.901961%,94.901961%,94.901961%);fill-opacity:1;stroke-width:6;stroke-linecap:butt;stroke-linejoin:miter;stroke:rgb(0%,39.215686%,0%);stroke-opacity:1;stroke-miterlimit:10;" d="M 421.359375 360.507812 C 421.359375 364.371094 418.222656 367.507812 414.359375 367.507812 C 410.492188 367.507812 407.359375 364.371094 407.359375 360.507812 C 407.359375 356.640625 410.492188 353.507812 414.359375 353.507812 C 418.222656 353.507812 421.359375 356.640625 421.359375 360.507812 "/>
<path style="fill-rule:nonzero;fill:rgb(94.901961%,94.901961%,94.901961%);fill-opacity:1;stroke-width:6;stroke-linecap:butt;stroke-linejoin:miter;stroke:rgb(0%,39.215686%,0%);stroke-opacity:1;stroke-miterlimit:10;" d="M 47 169.707031 C 47 173.574219 43.867188 176.707031 40 176.707031 C 36.132812 176.707031 33 173.574219 33 169.707031 C 33 165.84375 36.132812 162.707031 40 162.707031 C 43.867188 162.707031 47 165.84375 47 169.707031 "/>
<path style="fill-rule:nonzero;fill:rgb(94.901961%,94.901961%,94.901961%);fill-opacity:1;stroke-width:6;stroke-linecap:butt;stroke-linejoin:miter;stroke:rgb(0%,39.215686%,0%);stroke-opacity:1;stroke-miterlimit:10;" d="M 487.679688 500.082031 C 487.679688 503.945312 484.542969 507.082031 480.679688 507.082031 C 476.8125 507.082031 473.679688 503.945312 473.679688 500.082031 C 473.679688 496.214844 476.8125 493.082031 480.679688 493.082031 C 484.542969 493.082031 487.679688 496.214844 487.679688 500.082031 "/>
<path style="fill-rule:nonzero;fill:rgb(94.901961%,94.901961%,94.901961%);fill-opacity:1;stroke-width:6;stroke-linecap:butt;stroke-linejoin:miter;stroke:rgb(0%,39.215686%,0%);stroke-opacity:1;stroke-miterlimit:10;" d="M 120.628906 81.78125 C 120.628906 85.648438 117.496094 88.78125 113.628906 88.78125 C 109.761719 88.78125 106.628906 85.648438 106.628906 81.78125 C 106.628906 77.914062 109.761719 74.78125 113.628906 74.78125 C 117.496094 74.78125 120.628906 77.914062 120.628906 81.78125 "/>
<path style="fill-rule:nonzero;fill:rgb(94.901961%,94.901961%,94.901961%);fill-opacity:1;stroke-width:6;stroke-linecap:butt;stroke-linejoin:miter;stroke:rgb(0%,39.215686%,0%);stroke-opacity:1;stroke-miterlimit:10;" d="M 514.539062 419.90625 C 514.539062 423.769531 511.40625 426.90625 507.539062 426.90625 C 503.675781 426.90625 500.539062 423.769531 500.539062 419.90625 C 500.539062 416.039062 503.675781 412.90625 507.539062 412.90625 C 511.40625 412.90625 514.539062 416.039062 514.539062 419.90625 "/>
<path style="fill-rule:nonzero;fill:rgb(94.901961%,94.901961%,94.901961%);fill-opacity:1;stroke-width:6;stroke-linecap:butt;stroke-linejoin:miter;stroke:rgb(0%,39.215686%,0%);stroke-opacity:1;stroke-miterlimit:10;" d="M 254.746094 464.914062 C 254.746094 468.78125 251.609375 471.914062 247.746094 471.914062 C 243.878906 471.914062 240.746094 468.78125 240.746094 464.914062 C 240.746094 461.046875 243.878906 457.914062 247.746094 457.914062 C 251.609375 457.914062 254.746094 461.046875 254.746094 464.914062 "/>
</g>
</svg>
